<svg width="24" height="24" viewBox="0 0 24 24" fill="none" xmlns="http://www.w3.org/2000/svg">
<mask id="mask0_25_4969" style="mask-type:alpha" maskUnits="userSpaceOnUse" x="0" y="0" width="24" height="24">
<rect width="24" height="24" fill="#D9D9D9"/>
</mask>
<g mask="url(#mask0_25_4969)">
<path d="M5.5 21V14.5H5C4.71667 14.5 4.47917 14.4042 4.2875 14.2125C4.09583 14.0208 4 13.7833 4 13.5V9C4 8.45 4.19583 7.97917 4.5875 7.5875C4.97917 7.19583 5.45 7 6 7H9C9.55 7 10.0208 7.19583 10.4125 7.5875C10.8042 7.97917 11 8.45 11 9V13.5C11 13.7833 10.9042 14.0208 10.7125 14.2125C10.5208 14.4042 10.2833 14.5 10 14.5H9.5V21C9.5 21.2833 9.40417 21.5208 9.2125 21.7125C9.02083 21.9042 8.78333 22 8.5 22H6.5C6.21667 22 5.97917 21.9042 5.7875 21.7125C5.59583 21.5208 5.5 21.2833 5.5 21ZM7.5 6C6.95 6 6.47917 5.80417 6.0875 5.4125C5.69583 5.02083 5.5 4.55 5.5 4C5.5 3.45 5.69583 2.97917 6.0875 2.5875C6.47917 2.19583 6.95 2 7.5 2C8.05 2 8.52083 2.19583 8.9125 2.5875C9.30417 2.97917 9.5 3.45 9.5 4C9.5 4.55 9.30417 5.02083 8.9125 5.4125C8.52083 5.80417 8.05 6 7.5 6ZM15 21V16H13.375C13.0417 16 12.775 15.8625 12.575 15.5875C12.375 15.3125 12.3333 15.0083 12.45 14.675L14.55 8.35C14.6833 7.91667 14.9292 7.58333 15.2875 7.35C15.6458 7.11667 16.05 7 16.5 7C16.95 7 17.3542 7.11667 17.7125 7.35C18.0708 7.58333 18.3167 7.91667 18.45 8.35L20.55 14.675C20.6667 15.0083 20.625 15.3125 20.425 15.5875C20.225 15.8625 19.9583 16 19.625 16H18V21C18 21.2833 17.9042 21.5208 17.7125 21.7125C17.5208 21.9042 17.2833 22 17 22H16C15.7167 22 15.4792 21.9042 15.2875 21.7125C15.0958 21.5208 15 21.2833 15 21ZM16.5 6C15.95 6 15.4792 5.80417 15.0875 5.4125C14.6958 5.02083 14.5 4.55 14.5 4C14.5 3.45 14.6958 2.97917 15.0875 2.5875C15.4792 2.19583 15.95 2 16.5 2C17.05 2 17.5208 2.19583 17.9125 2.5875C18.3042 2.97917 18.5 3.45 18.5 4C18.5 4.55 18.3042 5.02083 17.9125 5.4125C17.5208 5.80417 17.05 6 16.5 6Z" fill="#FF6E4B"/>
</g>
</svg>
