<svg width="20" height="21" viewBox="0 0 20 21" fill="none" xmlns="http://www.w3.org/2000/svg">
<mask id="mask0_9_4030" style="mask-type:alpha" maskUnits="userSpaceOnUse" x="0" y="0" width="20" height="21">
<rect y="0.5" width="20" height="20" fill="#D9D9D9"/>
</mask>
<g mask="url(#mask0_9_4030)">
<path d="M14.375 19.4583V16.125H5.88142C5.46047 16.125 5.10417 15.9791 4.81252 15.6875C4.52085 15.3958 4.37502 15.0395 4.37502 14.6186V6.12498H1.04169V4.87502H4.37502V1.54169H5.62498V14.6186C5.62498 14.6827 5.65169 14.7415 5.70512 14.7949C5.75854 14.8483 5.81731 14.875 5.88142 14.875H18.9583V16.125H15.625V19.4583L14.375 19.4583ZM14.375 13.625V6.38142C14.375 6.31731 14.3483 6.25854 14.2949 6.20513C14.2415 6.15169 14.1827 6.12498 14.1186 6.12498H6.87496V4.87502H14.1186C14.5395 4.87502 14.8958 5.02085 15.1875 5.31252C15.4791 5.60417 15.625 5.96047 15.625 6.38142V13.625H14.375Z" fill="#484848"/>
</g>
</svg>
