<svg width="24" height="24" viewBox="0 0 24 24" fill="none" xmlns="http://www.w3.org/2000/svg">
<mask id="mask0_9_3109" style="mask-type:alpha" maskUnits="userSpaceOnUse" x="0" y="0" width="24" height="24">
<rect width="24" height="24" fill="#D9D9D9"/>
</mask>
<g mask="url(#mask0_9_3109)">
<path d="M17.25 22.75V18.75H7.05768C6.55254 18.75 6.12498 18.575 5.775 18.225C5.425 17.875 5.25 17.4474 5.25 16.9423V6.74998H1.25V5.25003H5.25V1.25003H6.74995V16.9423C6.74995 17.0192 6.78201 17.0898 6.84613 17.1539C6.91023 17.218 6.98074 17.25 7.05768 17.25H22.75V18.75H18.75V22.75L17.25 22.75ZM17.25 15.7501V7.05771C17.25 6.98077 17.2179 6.91026 17.1538 6.84616C17.0897 6.78204 17.0192 6.74998 16.9423 6.74998H8.24993V5.25003H16.9423C17.4474 5.25003 17.875 5.42503 18.225 5.77503C18.575 6.12501 18.75 6.55257 18.75 7.05771V15.7501H17.25Z" fill="#484848"/>
</g>
</svg>
