<svg width="16" height="17" viewBox="0 0 16 17" fill="none" xmlns="http://www.w3.org/2000/svg">
<mask id="mask0_9_3970" style="mask-type:alpha" maskUnits="userSpaceOnUse" x="0" y="0" width="16" height="17">
<rect y="0.5" width="16" height="16" fill="#D9D9D9"/>
</mask>
<g mask="url(#mask0_9_3970)">
<path d="M7.99987 12.6833L5.2332 14.35C5.11098 14.4278 4.9832 14.4611 4.84987 14.45C4.71653 14.4389 4.59987 14.3944 4.49987 14.3167C4.39987 14.2389 4.32209 14.1417 4.26653 14.025C4.21098 13.9083 4.19987 13.7778 4.2332 13.6333L4.96653 10.4833L2.51653 8.36665C2.40542 8.26665 2.33598 8.15277 2.3082 8.02499C2.28042 7.89721 2.28876 7.77221 2.3332 7.64999C2.37765 7.52777 2.44431 7.42777 2.5332 7.34999C2.62209 7.27221 2.74431 7.22221 2.89987 7.19999L6.1332 6.91665L7.3832 3.94999C7.43876 3.81665 7.52487 3.71665 7.64153 3.64999C7.7582 3.58332 7.87765 3.54999 7.99987 3.54999C8.12209 3.54999 8.24153 3.58332 8.3582 3.64999C8.47487 3.71665 8.56098 3.81665 8.61653 3.94999L9.86653 6.91665L13.0999 7.19999C13.2554 7.22221 13.3776 7.27221 13.4665 7.34999C13.5554 7.42777 13.6221 7.52777 13.6665 7.64999C13.711 7.77221 13.7193 7.89721 13.6915 8.02499C13.6638 8.15277 13.5943 8.26665 13.4832 8.36665L11.0332 10.4833L11.7665 13.6333C11.7999 13.7778 11.7888 13.9083 11.7332 14.025C11.6776 14.1417 11.5999 14.2389 11.4999 14.3167C11.3999 14.3944 11.2832 14.4389 11.1499 14.45C11.0165 14.4611 10.8888 14.4278 10.7665 14.35L7.99987 12.6833Z" fill="#FF6E4B"/>
</g>
</svg>
