<svg width="24" height="24" viewBox="0 0 24 24" fill="none" xmlns="http://www.w3.org/2000/svg">
<mask id="mask0_9_3189" style="mask-type:alpha" maskUnits="userSpaceOnUse" x="0" y="0" width="24" height="24">
<rect width="24" height="24" fill="#D9D9D9"/>
</mask>
<g mask="url(#mask0_9_3189)">
<path d="M6 15.1308C7 15.0167 7.99743 14.9311 8.9923 14.874C9.98717 14.817 10.9897 14.7885 12 14.7885C13.0102 14.7885 14.0128 14.817 15.0077 14.874C16.0025 14.9311 17 15.0167 18 15.1308L14 10.327L11.2365 13.6212L9.23653 11.2212L6 15.1308ZM3.48077 19.3461C3.21026 19.3782 2.97917 19.3144 2.7875 19.1548C2.59583 18.9952 2.5 18.7705 2.5 18.4807V5.53851C2.5 5.24876 2.59583 5.02409 2.7875 4.86449C2.97917 4.70487 3.21026 4.64109 3.48077 4.67314C3.71027 4.71802 4.06862 4.81321 4.5558 4.95871C5.04298 5.10423 5.64747 5.25263 6.36925 5.40391C7.09105 5.5552 7.91989 5.69237 8.85578 5.81544C9.79166 5.93851 10.8397 6.00004 12 6.00004C13.1602 6.00004 14.2067 5.93851 15.1394 5.81544C16.0721 5.69237 16.8993 5.5552 17.6211 5.40391C18.3429 5.25263 18.9458 5.10423 19.4297 4.95871C19.9137 4.81321 20.2705 4.71802 20.5 4.67314C20.7705 4.64109 21.0047 4.70487 21.2028 4.86449C21.4009 5.02409 21.5 5.24876 21.5 5.53851V18.4807C21.5 18.7705 21.4009 18.9952 21.2028 19.1548C21.0047 19.3144 20.7705 19.3782 20.5 19.3461C20.2705 19.3012 19.9137 19.2061 19.4297 19.0605C18.9458 18.915 18.3429 18.7634 17.6211 18.6057C16.8993 18.448 16.0721 18.3077 15.1394 18.1846C14.2067 18.0615 13.1602 18 12 18C10.8397 18 9.79166 18.0615 8.85578 18.1846C7.91989 18.3077 7.09105 18.448 6.36925 18.6057C5.64747 18.7634 5.04298 18.915 4.5558 19.0605C4.06862 19.2061 3.71027 19.3012 3.48077 19.3461ZM3.99998 17.65C5.29998 17.2667 6.62081 16.9792 7.96248 16.7875C9.30414 16.5958 10.65 16.5 12 16.5C13.35 16.5 14.6958 16.5958 16.0375 16.7875C17.3791 16.9792 18.7 17.2667 20 17.65V6.38464C18.7 6.76797 17.3791 7.0497 16.0375 7.22981C14.6958 7.40995 13.35 7.50001 12 7.50001C10.65 7.50001 9.30414 7.40995 7.96248 7.22981C6.62081 7.0497 5.29998 6.76797 3.99998 6.38464V17.65Z" fill="#484848"/>
</g>
</svg>
