<svg width="24" height="24" viewBox="0 0 24 24" fill="none" xmlns="http://www.w3.org/2000/svg">
<mask id="mask0_25_3299" style="mask-type:alpha" maskUnits="userSpaceOnUse" x="0" y="0" width="24" height="24">
<rect width="24" height="24" fill="#D9D9D9"/>
</mask>
<g mask="url(#mask0_25_3299)">
<path d="M11.975 13.45L5.075 20.3C4.89167 20.4834 4.6625 20.5792 4.3875 20.5875C4.1125 20.5959 3.875 20.5 3.675 20.3C3.49167 20.1167 3.4 19.8834 3.4 19.6C3.4 19.3167 3.49167 19.0834 3.675 18.9L13.225 9.35002C12.925 8.65002 12.8833 7.85835 13.1 6.97502C13.3167 6.09169 13.7917 5.30002 14.525 4.60002C15.4083 3.71669 16.3917 3.20002 17.475 3.05002C18.5583 2.90002 19.4417 3.16669 20.125 3.85002C20.8083 4.53335 21.075 5.41669 20.925 6.50002C20.775 7.58335 20.2583 8.56669 19.375 9.45002C18.675 10.1834 17.8833 10.6584 17 10.875C16.1167 11.0917 15.325 11.05 14.625 10.75L13.375 12L20.275 18.9C20.4583 19.0834 20.5542 19.3125 20.5625 19.5875C20.5708 19.8625 20.475 20.1 20.275 20.3C20.0917 20.4834 19.8583 20.575 19.575 20.575C19.2917 20.575 19.0583 20.4834 18.875 20.3L11.975 13.45ZM7.325 12.45L4.325 9.45002C3.625 8.75002 3.18333 7.86669 3 6.80002C2.81667 5.73335 3.025 4.78335 3.625 3.95002C3.80833 3.70002 4.05417 3.55835 4.3625 3.52502C4.67083 3.49169 4.93333 3.59169 5.15 3.82502L10.525 9.25002L7.325 12.45Z" fill="#FF6E4B"/>
</g>
</svg>
