<svg width="24" height="24" viewBox="0 0 24 24" fill="none" xmlns="http://www.w3.org/2000/svg">
<mask id="mask0_9_3219" style="mask-type:alpha" maskUnits="userSpaceOnUse" x="0" y="0" width="24" height="24">
<rect width="24" height="24" fill="#D9D9D9"/>
</mask>
<g mask="url(#mask0_9_3219)">
<path d="M5.8269 21.75V14.5H4.3269V9.00001C4.3269 8.51411 4.4971 8.10098 4.83748 7.76061C5.17786 7.42023 5.591 7.25004 6.07688 7.25004H8.92303C9.40891 7.25004 9.82205 7.42023 10.1624 7.76061C10.5028 8.10098 10.673 8.51411 10.673 9.00001V14.5H9.173V21.75H5.8269ZM7.49995 6.23076C6.98842 6.23076 6.55285 6.05096 6.19323 5.69136C5.83361 5.33175 5.6538 4.89617 5.6538 4.38464C5.6538 3.87311 5.83361 3.43753 6.19323 3.07791C6.55285 2.71831 6.98842 2.53851 7.49995 2.53851C8.01149 2.53851 8.44706 2.71832 8.80668 3.07794C9.1663 3.43756 9.3461 3.87313 9.3461 4.38466C9.3461 4.8962 9.1663 5.33177 8.80668 5.69139C8.44706 6.05099 8.01149 6.23076 7.49995 6.23076ZM15.25 21.75V16H12.5385L14.8192 8.42694C14.9333 8.05131 15.1439 7.76125 15.4509 7.55676C15.758 7.35228 16.1077 7.25004 16.5 7.25004C16.8923 7.25004 17.2419 7.35228 17.549 7.55676C17.856 7.76125 18.0666 8.05131 18.1807 8.42694L20.4615 16H17.7499V21.75L15.25 21.75ZM16.5 6.23079C15.9884 6.23079 15.5528 6.05099 15.1932 5.69139C14.8336 5.33177 14.6538 4.8962 14.6538 4.38466C14.6538 3.87313 14.8336 3.43756 15.1932 3.07794C15.5528 2.71832 15.9884 2.53851 16.5 2.53851C17.0115 2.53851 17.4471 2.71832 17.8067 3.07794C18.1663 3.43756 18.3461 3.87313 18.3461 4.38466C18.3461 4.8962 18.1663 5.33177 17.8067 5.69139C17.4471 6.05099 17.0115 6.23079 16.5 6.23079Z" fill="#484848"/>
</g>
</svg>
