<svg width="25" height="28" viewBox="0 0 30 30" fill="none" xmlns="http://www.w3.org/2000/svg">
<path d="M7.28 4.54L15 12.26L22.68 4.58C22.8496 4.39943 23.054 4.25499 23.2808 4.15532C23.5076 4.05566 23.7523 4.00283 24 4C24.5304 4 25.0391 4.21071 25.4142 4.58579C25.7893 4.96086 26 5.46957 26 6C26.0047 6.2452 25.9592 6.48877 25.8663 6.71576C25.7735 6.94275 25.6352 7.14837 25.46 7.32L17.68 15L25.46 22.78C25.7896 23.1025 25.9829 23.5392 26 24C26 24.5304 25.7893 25.0391 25.4142 25.4142C25.0391 25.7893 24.5304 26 24 26C23.7451 26.0106 23.4908 25.968 23.2532 25.8751C23.0157 25.7821 22.8 25.6407 22.62 25.46L15 17.74L7.3 25.44C7.13102 25.6145 6.92913 25.7539 6.70601 25.85C6.48288 25.9461 6.24293 25.9971 6 26C5.46957 26 4.96086 25.7893 4.58579 25.4142C4.21072 25.0391 4 24.5304 4 24C3.99534 23.7548 4.04084 23.5112 4.13369 23.2842C4.22655 23.0572 4.36482 22.8516 4.54 22.68L12.32 15L4.54 7.22C4.21037 6.89752 4.01708 6.46082 4 6C4 5.46957 4.21072 4.96086 4.58579 4.58579C4.96086 4.21071 5.46957 4 6 4C6.48 4.006 6.94 4.2 7.28 4.54Z" fill="#FF6E4B"/>
</svg>
