<svg width="24" height="24" viewBox="0 0 24 24" fill="none" xmlns="http://www.w3.org/2000/svg">
<mask id="mask0_9_3151" style="mask-type:alpha" maskUnits="userSpaceOnUse" x="0" y="0" width="24" height="24">
<rect width="24" height="24" fill="#D9D9D9"/>
</mask>
<g mask="url(#mask0_9_3151)">
<path d="M2.25 17.6153V16.0961C2.82565 16.0641 3.26283 15.8958 3.56155 15.5913C3.86027 15.2869 4.45642 15.1346 5.35 15.1346C6.26282 15.1346 6.88301 15.3013 7.21058 15.6346C7.53814 15.9679 8.02116 16.1346 8.65963 16.1346C9.31859 16.1346 9.81186 15.9679 10.1394 15.6346C10.467 15.3013 11.0872 15.1346 12 15.1346C12.8923 15.1346 13.5125 15.3013 13.8606 15.6346C14.2086 15.9679 14.7019 16.1346 15.3404 16.1346C15.9994 16.1346 16.4875 15.9679 16.8048 15.6346C17.1221 15.3013 17.7372 15.1346 18.65 15.1346C19.5436 15.1346 20.1397 15.2869 20.4385 15.5913C20.7372 15.8958 21.1743 16.0641 21.75 16.0961V17.6153C20.9731 17.5769 20.4106 17.4038 20.0625 17.0961C19.7144 16.7884 19.2436 16.6346 18.65 16.6346C18.018 16.6346 17.5365 16.8013 17.2058 17.1346C16.875 17.4679 16.2532 17.6346 15.3404 17.6346C14.4481 17.6346 13.8279 17.4679 13.4798 17.1346C13.1317 16.8013 12.6385 16.6346 12 16.6346C11.341 16.6346 10.8477 16.8013 10.5202 17.1346C10.1926 17.4679 9.57244 17.6346 8.65963 17.6346C7.74681 17.6346 7.13014 17.4679 6.80963 17.1346C6.48911 16.8013 6.00257 16.6346 5.35 16.6346C4.72948 16.6346 4.26025 16.7884 3.9423 17.0961C3.62435 17.4038 3.06023 17.5769 2.25 17.6153ZM2.25 13.7307V12.2115C2.82565 12.1795 3.26283 12.0112 3.56155 11.7067C3.86027 11.4023 4.45642 11.25 5.35 11.25C6.2423 11.25 6.85736 11.4167 7.19518 11.75C7.53301 12.0833 8.02116 12.25 8.65963 12.25C9.31859 12.25 9.81186 12.0833 10.1394 11.75C10.467 11.4167 11.0872 11.25 12 11.25C12.8923 11.25 13.5099 11.4167 13.8529 11.75C14.1958 12.0833 14.6814 12.25 15.3096 12.25C15.9686 12.25 16.4619 12.0833 16.7894 11.75C17.117 11.4167 17.7372 11.25 18.65 11.25C19.5231 11.25 20.1192 11.4023 20.4385 11.7067C20.7577 12.0112 21.1949 12.1795 21.75 12.2115V13.7307C20.9526 13.6923 20.3849 13.5192 20.0471 13.2115C19.7093 12.9038 19.2436 12.75 18.65 12.75C18.018 12.75 17.5365 12.9166 17.2058 13.25C16.875 13.5833 16.2532 13.75 15.3404 13.75C14.4481 13.75 13.8279 13.5833 13.4798 13.25C13.1317 12.9166 12.6385 12.75 12 12.75C11.341 12.75 10.8529 12.9166 10.5356 13.25C10.2183 13.5833 9.60319 13.75 8.69037 13.75C7.77756 13.75 7.15064 13.5833 6.80963 13.25C6.46859 12.9166 5.98205 12.75 5.35 12.75C4.75 12.75 4.28077 12.9038 3.9423 13.2115C3.60385 13.5192 3.03973 13.6923 2.25 13.7307ZM2.25 9.84614V8.32694C2.82565 8.29489 3.26283 8.12662 3.56155 7.82214C3.86027 7.51764 4.45642 7.36539 5.35 7.36539C6.2423 7.36539 6.85736 7.53205 7.19518 7.86539C7.53301 8.19872 8.02116 8.36539 8.65963 8.36539C9.31859 8.36539 9.81186 8.19872 10.1394 7.86539C10.467 7.53205 11.0872 7.36539 12 7.36539C12.8923 7.36539 13.5099 7.53205 13.8529 7.86539C14.1958 8.19872 14.6814 8.36539 15.3096 8.36539C15.9686 8.36539 16.4619 8.19872 16.7894 7.86539C17.117 7.53205 17.7372 7.36539 18.65 7.36539C19.5231 7.36539 20.1192 7.51764 20.4385 7.82214C20.7577 8.12662 21.1949 8.29489 21.75 8.32694V9.84614C20.9526 9.80767 20.3849 9.63459 20.0471 9.32689C19.7093 9.0192 19.2436 8.86536 18.65 8.86536C18.018 8.86536 17.5365 9.03203 17.2058 9.36536C16.875 9.69869 16.2532 9.86536 15.3404 9.86536C14.4481 9.86536 13.8279 9.69869 13.4798 9.36536C13.1317 9.03203 12.6385 8.86536 12 8.86536C11.341 8.86536 10.8529 9.03203 10.5356 9.36536C10.2183 9.69869 9.60319 9.86536 8.69037 9.86536C7.77756 9.86536 7.15064 9.69869 6.80963 9.36536C6.46859 9.03203 5.98205 8.86536 5.35 8.86536C4.75 8.86536 4.27757 9.0192 3.9327 9.32689C3.58782 9.63459 3.0269 9.80767 2.25 9.84614Z" fill="#484848"/>
</g>
</svg>
